<svg xmlns="http://www.w3.org/2000/svg" xmlns:xlink="http://www.w3.org/1999/xlink" width="500" zoomAndPan="magnify" viewBox="0 0 375 374.999991" height="500" preserveAspectRatio="xMidYMid meet" version="1.0"><defs><g/><clipPath id="9882a01e51"><rect x="0" width="227" y="0" height="89"/></clipPath></defs><rect x="-37.5" width="450" fill="#ffffff" y="-37.499999" height="449.999989" fill-opacity="1"/><rect x="-37.5" width="450" fill="#ffffed" y="-37.499999" height="449.999989" fill-opacity="1"/><g transform="matrix(1, 0, 0, 1, 76, 149)"><g clip-path="url(#9882a01e51)"><g fill="#f28dc0" fill-opacity="1"><g transform="translate(6.800939, 67.771233)"><g><path d="M 13.328125 0 C 10.378906 0 8.054688 -0.335938 6.359375 -1.015625 C 4.660156 -1.691406 3.414062 -2.566406 2.625 -3.640625 C 1.832031 -4.722656 1.335938 -5.867188 1.140625 -7.078125 C 0.941406 -8.296875 0.84375 -9.445312 0.84375 -10.53125 C 0.84375 -12.34375 1.054688 -14.25 1.484375 -16.25 C 1.910156 -18.257812 2.390625 -20.28125 2.921875 -22.3125 C 3.460938 -24.351562 3.875 -26.3125 4.15625 -28.1875 C 4.4375 -30.21875 4.492188 -32.304688 4.328125 -34.453125 C 4.160156 -36.609375 3.988281 -38.675781 3.8125 -40.65625 C 3.757812 -41.445312 3.660156 -42.578125 3.515625 -44.046875 C 3.378906 -45.523438 3.3125 -47.097656 3.3125 -48.765625 C 3.3125 -50.441406 3.492188 -52.054688 3.859375 -53.609375 C 4.234375 -55.160156 4.867188 -56.429688 5.765625 -57.421875 C 6.671875 -58.421875 7.972656 -58.921875 9.671875 -58.921875 C 10.753906 -58.921875 11.84375 -58.707031 12.9375 -58.28125 C 14.039062 -57.851562 14.707031 -57.640625 14.9375 -57.640625 C 15.332031 -57.691406 15.769531 -57.816406 16.25 -58.015625 C 16.738281 -58.210938 17.53125 -58.410156 18.625 -58.609375 C 19.726562 -58.816406 21.332031 -58.921875 23.4375 -58.921875 C 25.414062 -58.921875 27.492188 -58.566406 29.671875 -57.859375 C 31.847656 -57.148438 33.851562 -55.988281 35.6875 -54.375 C 37.53125 -52.757812 38.972656 -50.566406 40.015625 -47.796875 C 41.066406 -45.023438 41.453125 -41.546875 41.171875 -37.359375 C 40.941406 -33.160156 39.695312 -29.84375 37.4375 -27.40625 C 35.175781 -24.976562 31.894531 -23.765625 27.59375 -23.765625 C 25.5 -23.765625 23.84375 -24.046875 22.625 -24.609375 C 21.40625 -25.179688 20.539062 -25.722656 20.03125 -26.234375 C 19.519531 -26.742188 19.207031 -26.882812 19.09375 -26.65625 C 18.988281 -26.425781 19.257812 -25.742188 19.90625 -24.609375 C 20.5625 -23.484375 21.335938 -22.054688 22.234375 -20.328125 C 23.140625 -18.597656 23.960938 -16.769531 24.703125 -14.84375 C 25.441406 -12.925781 25.8125 -11.0625 25.8125 -9.25 C 25.863281 -7.664062 25.476562 -6.164062 24.65625 -4.75 C 23.84375 -3.332031 22.515625 -2.1875 20.671875 -1.3125 C 18.828125 -0.4375 16.378906 0 13.328125 0 Z M 23.4375 -50.9375 C 22.632812 -50.875 22.035156 -50.390625 21.640625 -49.484375 C 21.242188 -48.585938 21.03125 -47.5 21 -46.21875 C 20.976562 -44.945312 21.109375 -43.6875 21.390625 -42.4375 C 21.671875 -41.195312 22.132812 -40.148438 22.78125 -39.296875 C 23.4375 -38.453125 24.21875 -38.03125 25.125 -38.03125 C 25.40625 -38.03125 25.632812 -38.054688 25.8125 -38.109375 C 26.9375 -38.335938 27.722656 -38.914062 28.171875 -39.84375 C 28.628906 -40.78125 28.816406 -41.867188 28.734375 -43.109375 C 28.648438 -44.359375 28.351562 -45.578125 27.84375 -46.765625 C 27.332031 -47.960938 26.707031 -48.957031 25.96875 -49.75 C 25.238281 -50.539062 24.445312 -50.9375 23.59375 -50.9375 C 23.539062 -50.9375 23.515625 -50.9375 23.515625 -50.9375 C 23.515625 -50.9375 23.488281 -50.9375 23.4375 -50.9375 Z M 23.4375 -50.9375 "/></g></g></g><g fill="#f28dc0" fill-opacity="1"><g transform="translate(48.901163, 67.771233)"><g><path d="M 0.84375 -29.453125 C 0.84375 -35.617188 1.59375 -40.894531 3.09375 -45.28125 C 4.59375 -49.675781 6.710938 -53.046875 9.453125 -55.390625 C 12.203125 -57.742188 15.445312 -58.921875 19.1875 -58.921875 C 22.125 -58.921875 24.753906 -58.195312 27.078125 -56.75 C 29.398438 -55.300781 31.378906 -53.347656 33.015625 -50.890625 C 34.660156 -48.429688 35.992188 -45.613281 37.015625 -42.4375 C 38.035156 -39.269531 38.6875 -35.988281 38.96875 -32.59375 C 39.300781 -28.6875 39.15625 -24.796875 38.53125 -20.921875 C 37.914062 -17.046875 36.800781 -13.535156 35.1875 -10.390625 C 33.570312 -7.253906 31.429688 -4.738281 28.765625 -2.84375 C 26.109375 -0.945312 22.914062 0 19.1875 0 C 16.46875 0 13.988281 -0.859375 11.75 -2.578125 C 9.519531 -4.304688 7.582031 -6.597656 5.9375 -9.453125 C 4.300781 -12.316406 3.039062 -15.488281 2.15625 -18.96875 C 1.28125 -22.445312 0.84375 -25.941406 0.84375 -29.453125 Z M 19.1875 -49.328125 C 18.21875 -49.328125 17.363281 -48.800781 16.625 -47.75 C 15.894531 -46.707031 15.316406 -45.347656 14.890625 -43.671875 C 14.472656 -42.003906 14.234375 -40.222656 14.171875 -38.328125 C 14.117188 -36.429688 14.289062 -34.644531 14.6875 -32.96875 C 15.082031 -31.300781 15.742188 -29.941406 16.671875 -28.890625 C 17.609375 -27.847656 18.84375 -27.328125 20.375 -27.328125 C 21.726562 -27.328125 22.757812 -27.847656 23.46875 -28.890625 C 24.175781 -29.941406 24.644531 -31.300781 24.875 -32.96875 C 25.101562 -34.644531 25.117188 -36.429688 24.921875 -38.328125 C 24.722656 -40.222656 24.351562 -42.003906 23.8125 -43.671875 C 23.269531 -45.347656 22.601562 -46.707031 21.8125 -47.75 C 21.019531 -48.800781 20.144531 -49.328125 19.1875 -49.328125 Z M 19.1875 -49.328125 "/></g></g></g><g fill="#f28dc0" fill-opacity="1"><g transform="translate(88.879388, 67.771233)"><g><path d="M 7.046875 0 C 5.347656 0 3.890625 -0.691406 2.671875 -2.078125 C 1.453125 -3.460938 0.828125 -5.796875 0.796875 -9.078125 C 0.773438 -12.359375 1.726562 -16.832031 3.65625 -22.5 C 4.613281 -25.269531 5.25 -27.628906 5.5625 -29.578125 C 5.875 -31.535156 6.039062 -33.265625 6.0625 -34.765625 C 6.09375 -36.265625 6.109375 -37.734375 6.109375 -39.171875 C 6.109375 -40.617188 6.222656 -42.191406 6.453125 -43.890625 C 6.566406 -44.734375 7.019531 -45.578125 7.8125 -46.421875 C 8.601562 -47.273438 9.929688 -47.703125 11.796875 -47.703125 C 13.046875 -47.703125 14.066406 -47.390625 14.859375 -46.765625 C 15.648438 -46.148438 16.210938 -45.445312 16.546875 -44.65625 C 16.941406 -43.6875 17.15625 -42.4375 17.1875 -40.90625 C 17.21875 -39.382812 17.359375 -37.488281 17.609375 -35.21875 C 17.867188 -32.957031 18.5625 -30.21875 19.6875 -27 C 20.769531 -23.882812 21.71875 -20.738281 22.53125 -17.5625 C 23.351562 -14.394531 23.789062 -11.484375 23.84375 -8.828125 C 23.90625 -6.171875 23.34375 -4.035156 22.15625 -2.421875 C 20.96875 -0.804688 18.898438 0 15.953125 0 Z M 11.546875 -50.765625 C 10.078125 -50.765625 8.800781 -51.226562 7.71875 -52.15625 C 6.644531 -53.09375 6.109375 -54.210938 6.109375 -55.515625 C 6.109375 -56.878906 6.644531 -58.023438 7.71875 -58.953125 C 8.800781 -59.890625 10.078125 -60.359375 11.546875 -60.359375 C 13.078125 -60.359375 14.378906 -59.890625 15.453125 -58.953125 C 16.523438 -58.023438 17.0625 -56.878906 17.0625 -55.515625 C 17.0625 -54.210938 16.523438 -53.09375 15.453125 -52.15625 C 14.378906 -51.226562 13.078125 -50.765625 11.546875 -50.765625 Z M 11.546875 -50.765625 "/></g></g></g><g fill="#f28dc0" fill-opacity="1"><g transform="translate(113.57932, 67.771233)"><g><path d="M 12.046875 0 C 10.410156 0 8.6875 -0.335938 6.875 -1.015625 C 5.0625 -1.691406 3.5625 -2.75 2.375 -4.1875 C 1.1875 -5.632812 0.675781 -7.519531 0.84375 -9.84375 C 1.070312 -12.394531 1.5 -14.957031 2.125 -17.53125 C 2.75 -20.101562 3.398438 -23 4.078125 -26.21875 C 4.753906 -29.445312 5.234375 -33.269531 5.515625 -37.6875 C 5.679688 -40.175781 5.722656 -42.664062 5.640625 -45.15625 C 5.554688 -47.644531 5.539062 -49.921875 5.59375 -51.984375 C 5.65625 -54.054688 5.984375 -55.726562 6.578125 -57 C 7.171875 -58.28125 8.234375 -58.921875 9.765625 -58.921875 C 11.859375 -58.921875 13.910156 -58.367188 15.921875 -57.265625 C 17.929688 -56.160156 19.8125 -54.757812 21.5625 -53.0625 C 23.3125 -51.363281 24.878906 -49.648438 26.265625 -47.921875 C 27.660156 -46.191406 28.796875 -44.703125 29.671875 -43.453125 C 30.546875 -42.210938 31.097656 -41.453125 31.328125 -41.171875 C 32.054688 -40.328125 32.59375 -39.90625 32.9375 -39.90625 C 33.445312 -39.90625 33.800781 -40.9375 34 -43 C 34.195312 -45.0625 34.296875 -48.867188 34.296875 -54.421875 C 34.296875 -57.421875 35.710938 -58.921875 38.546875 -58.921875 C 38.992188 -58.921875 39.570312 -58.832031 40.28125 -58.65625 C 40.988281 -58.488281 41.648438 -58.09375 42.265625 -57.46875 C 42.890625 -56.84375 43.234375 -55.828125 43.296875 -54.421875 C 43.691406 -48.191406 44.171875 -42.894531 44.734375 -38.53125 C 45.304688 -34.175781 45.859375 -30.367188 46.390625 -27.109375 C 46.929688 -23.859375 47.367188 -20.847656 47.703125 -18.078125 C 48.046875 -15.304688 48.160156 -12.363281 48.046875 -9.25 C 47.992188 -6.707031 47.171875 -4.53125 45.578125 -2.71875 C 43.992188 -0.90625 41.648438 0 38.546875 0 C 34.578125 0 31.660156 -1.070312 29.796875 -3.21875 C 27.929688 -5.375 27.109375 -8.09375 27.328125 -11.375 C 27.617188 -15.28125 27.351562 -19.015625 26.53125 -22.578125 C 25.707031 -26.140625 24.644531 -29.320312 23.34375 -32.125 C 22.039062 -34.925781 20.765625 -37.132812 19.515625 -38.75 C 18.273438 -40.363281 17.375 -41.171875 16.8125 -41.171875 C 16.070312 -41.117188 15.617188 -40.691406 15.453125 -39.890625 C 15.285156 -39.097656 15.300781 -38.132812 15.5 -37 C 15.695312 -35.875 15.9375 -34.773438 16.21875 -33.703125 C 16.5 -32.628906 16.695312 -31.804688 16.8125 -31.234375 C 17.320312 -29.140625 18 -27.03125 18.84375 -24.90625 C 19.695312 -22.789062 20.546875 -20.695312 21.390625 -18.625 C 22.242188 -16.5625 22.878906 -14.507812 23.296875 -12.46875 C 23.722656 -10.4375 23.738281 -8.457031 23.34375 -6.53125 C 23.175781 -5.570312 22.75 -4.582031 22.0625 -3.5625 C 21.382812 -2.539062 20.269531 -1.691406 18.71875 -1.015625 C 17.164062 -0.335938 14.941406 0 12.046875 0 Z M 12.046875 0 "/></g></g></g><g fill="#f28dc0" fill-opacity="1"><g transform="translate(162.469894, 67.771233)"><g><path d="M 3.390625 -45.5 C 2.378906 -45.957031 1.660156 -46.789062 1.234375 -48 C 0.804688 -49.21875 0.691406 -50.535156 0.890625 -51.953125 C 1.085938 -53.367188 1.609375 -54.65625 2.453125 -55.8125 C 3.304688 -56.976562 4.5 -57.757812 6.03125 -58.15625 C 7.15625 -58.4375 8.238281 -58.617188 9.28125 -58.703125 C 10.332031 -58.785156 11.820312 -58.828125 13.75 -58.828125 C 14.539062 -58.828125 15.390625 -58.828125 16.296875 -58.828125 C 17.203125 -58.828125 18.25 -58.828125 19.4375 -58.828125 C 20.851562 -58.828125 22.222656 -58.84375 23.546875 -58.875 C 24.878906 -58.90625 26.054688 -58.921875 27.078125 -58.921875 C 27.867188 -58.921875 28.628906 -58.921875 29.359375 -58.921875 C 30.097656 -58.921875 30.78125 -58.921875 31.40625 -58.921875 C 33.726562 -58.921875 35.679688 -58.863281 37.265625 -58.75 C 38.847656 -58.632812 40.234375 -58.347656 41.421875 -57.890625 C 42.898438 -57.328125 43.976562 -56.351562 44.65625 -54.96875 C 45.332031 -53.582031 45.628906 -52.148438 45.546875 -50.671875 C 45.460938 -49.203125 45.023438 -47.929688 44.234375 -46.859375 C 43.441406 -45.785156 42.335938 -45.25 40.921875 -45.25 C 39.335938 -45.25 37.894531 -45.445312 36.59375 -45.84375 C 35.289062 -46.238281 34.128906 -46.4375 33.109375 -46.4375 C 31.921875 -46.4375 30.929688 -45.894531 30.140625 -44.8125 C 29.347656 -43.738281 28.78125 -41.503906 28.4375 -38.109375 C 28.15625 -35.503906 28.320312 -32.984375 28.9375 -30.546875 C 29.5625 -28.117188 30.394531 -25.742188 31.4375 -23.421875 C 32.488281 -21.109375 33.535156 -18.789062 34.578125 -16.46875 C 35.628906 -14.144531 36.410156 -11.796875 36.921875 -9.421875 C 37.097656 -8.679688 37.140625 -7.773438 37.046875 -6.703125 C 36.960938 -5.628906 36.59375 -4.582031 35.9375 -3.5625 C 35.289062 -2.539062 34.273438 -1.691406 32.890625 -1.015625 C 31.503906 -0.335938 29.566406 0 27.078125 0 L 19.4375 0 C 17.0625 0 15.222656 -0.550781 13.921875 -1.65625 C 12.617188 -2.757812 11.796875 -4.144531 11.453125 -5.8125 C 11.117188 -7.476562 11.175781 -9.160156 11.625 -10.859375 C 12.644531 -14.484375 13.59375 -18.035156 14.46875 -21.515625 C 15.351562 -24.992188 16.0625 -28.101562 16.59375 -30.84375 C 17.132812 -33.59375 17.375 -35.617188 17.3125 -36.921875 C 17.257812 -40.890625 16.738281 -43.507812 15.75 -44.78125 C 14.757812 -46.050781 13.613281 -46.6875 12.3125 -46.6875 C 11.0625 -46.6875 9.785156 -46.445312 8.484375 -45.96875 C 7.179688 -45.488281 5.96875 -45.25 4.84375 -45.25 C 4.332031 -45.25 3.847656 -45.332031 3.390625 -45.5 Z M 3.390625 -45.5 "/></g></g></g><g fill="#f28dc0" fill-opacity="1"><g transform="translate(208.89897, 67.771233)"><g><path d="M 7.890625 1.703125 C 5.628906 1.703125 3.890625 1.066406 2.671875 -0.203125 C 1.453125 -1.484375 0.84375 -2.914062 0.84375 -4.5 C 0.84375 -6.144531 1.394531 -7.671875 2.5 -9.078125 C 3.601562 -10.492188 5.398438 -11.203125 7.890625 -11.203125 C 9.929688 -11.203125 11.457031 -10.492188 12.46875 -9.078125 C 13.488281 -7.671875 13.972656 -6.144531 13.921875 -4.5 C 13.867188 -2.851562 13.273438 -1.40625 12.140625 -0.15625 C 11.003906 1.082031 9.585938 1.703125 7.890625 1.703125 Z M 7.890625 1.703125 "/></g></g></g><g fill="#e52687" fill-opacity="1"><g transform="translate(3.049207, 64.019505)"><g><path d="M 13.328125 1.589844 C 10.179688 1.589844 7.664062 1.214844 5.773438 0.460938 C 3.796875 -0.332031 2.320312 -1.386719 1.351562 -2.707031 C 0.40625 -3.988281 -0.1875 -5.363281 -0.425781 -6.832031 C -0.636719 -8.132812 -0.742188 -9.363281 -0.742188 -10.527344 C -0.742188 -12.449219 -0.519531 -14.46875 -0.0703125 -16.585938 C 0.359375 -18.617188 0.84375 -20.667969 1.390625 -22.730469 C 1.914062 -24.710938 2.3125 -26.609375 2.585938 -28.417969 C 2.851562 -30.328125 2.902344 -32.300781 2.742188 -34.335938 L 2.234375 -40.527344 C 2.175781 -41.320312 2.078125 -42.445312 1.9375 -43.902344 C 1.792969 -45.425781 1.71875 -47.046875 1.71875 -48.765625 C 1.71875 -50.558594 1.917969 -52.292969 2.3125 -53.96875 C 2.746094 -55.796875 3.503906 -57.304688 4.597656 -58.496094 C 5.816406 -59.832031 7.511719 -60.5 9.675781 -60.5 C 10.949219 -60.5 12.230469 -60.253906 13.515625 -59.757812 C 14.039062 -59.558594 14.453125 -59.410156 14.753906 -59.3125 C 14.882812 -59.269531 14.984375 -59.242188 15.054688 -59.222656 C 15.070312 -59.21875 15.082031 -59.21875 15.082031 -59.21875 C 15.042969 -59.226562 14.996094 -59.226562 14.941406 -59.226562 L 14.941406 -57.636719 L 14.714844 -59.210938 C 14.980469 -59.25 15.289062 -59.34375 15.648438 -59.488281 C 16.234375 -59.730469 17.136719 -59.960938 18.351562 -60.179688 C 19.546875 -60.394531 21.238281 -60.5 23.429688 -60.5 C 25.578125 -60.5 27.820312 -60.121094 30.160156 -59.363281 C 32.542969 -58.585938 34.738281 -57.320312 36.742188 -55.566406 C 38.78125 -53.777344 40.371094 -51.371094 41.511719 -48.351562 C 42.640625 -45.363281 43.054688 -41.660156 42.757812 -37.242188 C 42.511719 -32.683594 41.125 -29.046875 38.597656 -26.332031 C 36.019531 -23.5625 32.351562 -22.175781 27.585938 -22.175781 C 25.257812 -22.175781 23.378906 -22.507812 21.949219 -23.171875 C 20.5625 -23.816406 19.550781 -24.460938 18.90625 -25.105469 C 18.824219 -25.1875 18.753906 -25.25 18.699219 -25.296875 C 18.6875 -25.304688 18.679688 -25.308594 18.679688 -25.3125 C 18.699219 -25.296875 18.726562 -25.28125 18.757812 -25.269531 C 18.992188 -25.160156 19.25 -25.136719 19.53125 -25.195312 C 19.988281 -25.285156 20.320312 -25.535156 20.523438 -25.941406 C 20.648438 -26.195312 20.695312 -26.4375 20.65625 -26.667969 L 20.65625 -26.675781 C 20.664062 -26.644531 20.675781 -26.605469 20.695312 -26.558594 C 20.800781 -26.292969 21 -25.910156 21.285156 -25.410156 C 21.945312 -24.261719 22.734375 -22.8125 23.648438 -21.070312 C 24.582031 -19.289062 25.429688 -17.40625 26.1875 -15.421875 C 26.992188 -13.316406 27.394531 -11.257812 27.394531 -9.253906 L 25.804688 -9.253906 L 27.394531 -9.308594 C 27.464844 -7.417969 27.007812 -5.632812 26.035156 -3.953125 C 25.050781 -2.257812 23.488281 -0.898438 21.355469 0.121094 C 19.296875 1.101562 16.621094 1.589844 13.328125 1.589844 Z M 13.328125 -1.589844 C 16.140625 -1.589844 18.363281 -1.980469 19.984375 -2.753906 C 21.527344 -3.488281 22.625 -4.421875 23.28125 -5.550781 C 23.949219 -6.703125 24.257812 -7.917969 24.214844 -9.195312 L 24.214844 -9.253906 C 24.214844 -10.867188 23.878906 -12.546875 23.214844 -14.285156 C 22.5 -16.152344 21.707031 -17.917969 20.828125 -19.589844 C 19.933594 -21.296875 19.164062 -22.707031 18.527344 -23.824219 C 18.160156 -24.457031 17.898438 -24.976562 17.734375 -25.386719 C 17.425781 -26.167969 17.40625 -26.828125 17.675781 -27.367188 C 17.9375 -27.886719 18.347656 -28.203125 18.910156 -28.316406 C 19.296875 -28.394531 19.6875 -28.34375 20.074219 -28.167969 C 20.40625 -28.015625 20.765625 -27.746094 21.15625 -27.355469 C 21.535156 -26.976562 22.246094 -26.546875 23.292969 -26.058594 C 24.296875 -25.59375 25.726562 -25.359375 27.585938 -25.359375 C 31.425781 -25.359375 34.320312 -26.40625 36.269531 -28.5 C 38.269531 -30.652344 39.375 -33.636719 39.582031 -37.457031 C 39.847656 -41.414062 39.5 -44.671875 38.535156 -47.226562 C 37.582031 -49.753906 36.285156 -51.734375 34.644531 -53.171875 C 32.96875 -54.640625 31.144531 -55.695312 29.175781 -56.335938 C 27.15625 -56.988281 25.242188 -57.316406 23.429688 -57.316406 C 21.429688 -57.316406 19.921875 -57.226562 18.914062 -57.046875 C 17.921875 -56.867188 17.238281 -56.703125 16.859375 -56.546875 C 16.257812 -56.296875 15.691406 -56.136719 15.164062 -56.058594 L 15.050781 -56.042969 L 14.941406 -56.042969 C 14.515625 -56.042969 13.660156 -56.292969 12.375 -56.789062 C 11.453125 -57.140625 10.554688 -57.316406 9.675781 -57.316406 C 8.445312 -57.316406 7.535156 -56.996094 6.945312 -56.351562 C 6.226562 -55.5625 5.714844 -54.527344 5.410156 -53.238281 C 5.070312 -51.800781 4.902344 -50.3125 4.902344 -48.765625 C 4.902344 -47.148438 4.96875 -45.628906 5.105469 -44.207031 C 5.25 -42.722656 5.347656 -41.582031 5.40625 -40.789062 L 5.914062 -34.589844 C 6.09375 -32.324219 6.035156 -30.109375 5.734375 -27.941406 C 5.441406 -26.019531 5.019531 -24.011719 4.46875 -21.917969 C 3.9375 -19.90625 3.460938 -17.910156 3.042969 -15.925781 C 2.640625 -14.027344 2.441406 -12.226562 2.441406 -10.527344 C 2.441406 -9.535156 2.53125 -8.476562 2.71875 -7.34375 C 2.875 -6.378906 3.273438 -5.464844 3.914062 -4.59375 C 4.527344 -3.761719 5.539062 -3.0625 6.957031 -2.496094 C 8.464844 -1.894531 10.589844 -1.589844 13.328125 -1.589844 Z M 23.542969 -49.34375 C 23.390625 -49.332031 23.242188 -49.167969 23.105469 -48.847656 C 22.792969 -48.136719 22.625 -47.246094 22.601562 -46.183594 C 22.574219 -45.042969 22.6875 -43.910156 22.941406 -42.792969 C 23.175781 -41.777344 23.546875 -40.933594 24.054688 -40.269531 C 24.386719 -39.835938 24.742188 -39.621094 25.125 -39.621094 C 25.199219 -39.621094 25.261719 -39.621094 25.308594 -39.628906 L 25.300781 -39.621094 L 25.394531 -39.652344 L 25.492188 -39.671875 C 26.109375 -39.796875 26.527344 -40.089844 26.75 -40.546875 C 27.078125 -41.226562 27.210938 -42.050781 27.144531 -43.011719 C 27.074219 -44.078125 26.816406 -45.121094 26.378906 -46.144531 C 25.941406 -47.164062 25.417969 -48 24.808594 -48.660156 C 24.386719 -49.113281 23.984375 -49.339844 23.597656 -49.339844 L 23.429688 -49.339844 L 23.429688 -50.929688 Z M 23.316406 -52.519531 L 23.371094 -52.523438 L 23.597656 -52.523438 C 24.910156 -52.523438 26.089844 -51.957031 27.140625 -50.824219 C 28 -49.898438 28.722656 -48.753906 29.304688 -47.398438 C 29.886719 -46.042969 30.222656 -44.652344 30.320312 -43.230469 C 30.425781 -41.703125 30.191406 -40.347656 29.613281 -39.160156 C 28.929688 -37.75 27.765625 -36.882812 26.117188 -36.550781 L 25.804688 -38.113281 L 26.308594 -36.601562 C 25.976562 -36.492188 25.582031 -36.4375 25.125 -36.4375 C 23.695312 -36.4375 22.496094 -37.070312 21.527344 -38.332031 C 20.734375 -39.367188 20.171875 -40.617188 19.839844 -42.089844 C 19.527344 -43.460938 19.386719 -44.851562 19.417969 -46.253906 C 19.449219 -47.738281 19.707031 -49.027344 20.1875 -50.125 C 20.839844 -51.617188 21.882812 -52.414062 23.316406 -52.519531 Z M 23.316406 -52.519531 "/></g></g></g><g fill="#e52687" fill-opacity="1"><g transform="translate(45.149431, 64.019505)"><g><path d="M -0.742188 -29.453125 C -0.742188 -35.800781 0.0351562 -41.246094 1.59375 -45.800781 C 3.1875 -50.460938 5.464844 -54.058594 8.429688 -56.597656 C 11.472656 -59.199219 15.058594 -60.5 19.183594 -60.5 C 22.429688 -60.5 25.339844 -59.699219 27.917969 -58.097656 C 30.433594 -56.53125 32.574219 -54.421875 34.34375 -51.769531 C 36.066406 -49.1875 37.460938 -46.238281 38.523438 -42.929688 C 39.582031 -39.644531 40.253906 -36.242188 40.546875 -32.726562 C 40.898438 -28.695312 40.753906 -24.675781 40.109375 -20.671875 C 39.460938 -16.628906 38.289062 -12.960938 36.601562 -9.671875 C 34.871094 -6.300781 32.570312 -3.59375 29.699219 -1.546875 C 26.761719 0.546875 23.257812 1.589844 19.183594 1.589844 C 16.105469 1.589844 13.304688 0.617188 10.785156 -1.328125 C 8.382812 -3.183594 6.308594 -5.632812 4.5625 -8.671875 C 2.847656 -11.65625 1.535156 -14.960938 0.621094 -18.582031 C -0.289062 -22.191406 -0.742188 -25.816406 -0.742188 -29.453125 Z M 2.441406 -29.453125 C 2.441406 -26.078125 2.863281 -22.714844 3.707031 -19.359375 C 4.550781 -16.023438 5.753906 -12.988281 7.320312 -10.257812 C 8.859375 -7.582031 10.660156 -5.445312 12.730469 -3.847656 C 14.679688 -2.34375 16.828125 -1.589844 19.183594 -1.589844 C 22.578125 -1.589844 25.46875 -2.441406 27.851562 -4.140625 C 30.300781 -5.886719 32.273438 -8.214844 33.769531 -11.125 C 35.304688 -14.117188 36.371094 -17.464844 36.964844 -21.175781 C 37.566406 -24.921875 37.703125 -28.683594 37.375 -32.464844 C 37.101562 -35.738281 36.476562 -38.902344 35.492188 -41.953125 C 34.519531 -44.984375 33.253906 -47.667969 31.695312 -50.003906 C 30.183594 -52.277344 28.363281 -54.070312 26.238281 -55.394531 C 24.175781 -56.675781 21.824219 -57.316406 19.183594 -57.316406 C 15.839844 -57.316406 12.945312 -56.269531 10.5 -54.175781 C 7.976562 -52.015625 6.011719 -48.882812 4.605469 -44.769531 C 3.160156 -40.550781 2.441406 -35.445312 2.441406 -29.453125 Z M 19.183594 -47.726562 C 18.773438 -47.726562 18.359375 -47.429688 17.941406 -46.832031 C 17.316406 -45.945312 16.816406 -44.761719 16.441406 -43.28125 C 16.042969 -41.722656 15.820312 -40.058594 15.765625 -38.277344 C 15.714844 -36.523438 15.871094 -34.878906 16.234375 -33.34375 C 16.566406 -31.9375 17.113281 -30.808594 17.867188 -29.960938 C 18.484375 -29.269531 19.320312 -28.925781 20.371094 -28.925781 C 21.167969 -28.925781 21.757812 -29.214844 22.152344 -29.792969 C 22.71875 -30.636719 23.101562 -31.769531 23.292969 -33.191406 C 23.503906 -34.734375 23.515625 -36.390625 23.332031 -38.160156 C 23.144531 -39.945312 22.796875 -41.621094 22.292969 -43.183594 C 21.8125 -44.683594 21.230469 -45.882812 20.546875 -46.785156 C 20.070312 -47.414062 19.617188 -47.726562 19.183594 -47.726562 Z M 19.183594 -50.910156 C 20.671875 -50.910156 21.972656 -50.175781 23.085938 -48.707031 C 23.984375 -47.515625 24.730469 -46 25.324219 -44.160156 C 25.898438 -42.386719 26.285156 -40.496094 26.496094 -38.492188 C 26.707031 -36.46875 26.691406 -34.558594 26.449219 -32.761719 C 26.1875 -30.847656 25.636719 -29.265625 24.789062 -28.011719 C 23.765625 -26.496094 22.292969 -25.742188 20.371094 -25.742188 C 18.367188 -25.742188 16.742188 -26.441406 15.492188 -27.84375 C 14.378906 -29.089844 13.59375 -30.679688 13.136719 -32.609375 C 12.707031 -34.414062 12.523438 -36.335938 12.585938 -38.371094 C 12.644531 -40.386719 12.902344 -42.28125 13.355469 -44.066406 C 13.828125 -45.921875 14.488281 -47.457031 15.335938 -48.664062 C 16.386719 -50.160156 17.671875 -50.910156 19.183594 -50.910156 Z M 19.183594 -50.910156 "/></g></g></g><g fill="#e52687" fill-opacity="1"><g transform="translate(85.127657, 64.019505)"><g><path d="M 7.046875 1.589844 C 4.867188 1.589844 3.011719 0.71875 1.476562 -1.03125 C 0 -2.710938 -0.753906 -5.390625 -0.785156 -9.070312 C -0.816406 -12.53125 0.160156 -17.175781 2.144531 -23.007812 C 3.078125 -25.699219 3.691406 -27.972656 3.988281 -29.832031 C 4.289062 -31.710938 4.449219 -33.363281 4.476562 -34.789062 C 4.507812 -36.28125 4.519531 -37.742188 4.519531 -39.175781 C 4.519531 -40.6875 4.636719 -42.328125 4.875 -44.09375 C 5.03125 -45.28125 5.621094 -46.421875 6.644531 -47.515625 C 7.753906 -48.703125 9.46875 -49.296875 11.800781 -49.296875 C 13.410156 -49.296875 14.757812 -48.871094 15.839844 -48.023438 C 16.84375 -47.234375 17.570312 -46.316406 18.015625 -45.277344 C 18.492188 -44.117188 18.75 -42.671875 18.78125 -40.945312 C 18.808594 -39.464844 18.945312 -37.617188 19.195312 -35.40625 C 19.4375 -33.261719 20.101562 -30.632812 21.195312 -27.519531 C 22.285156 -24.363281 23.246094 -21.179688 24.078125 -17.96875 C 24.929688 -14.679688 25.382812 -11.644531 25.445312 -8.863281 C 25.507812 -5.839844 24.839844 -3.378906 23.4375 -1.476562 C 21.929688 0.570312 19.4375 1.589844 15.957031 1.589844 Z M 7.046875 -1.589844 L 15.957031 -1.589844 C 18.363281 -1.589844 20.003906 -2.183594 20.875 -3.363281 C 21.847656 -4.683594 22.308594 -6.496094 22.261719 -8.792969 C 22.207031 -11.332031 21.785156 -14.121094 20.996094 -17.171875 C 20.1875 -20.300781 19.25 -23.398438 18.191406 -26.464844 C 17.019531 -29.804688 16.300781 -32.664062 16.03125 -35.050781 C 15.769531 -37.363281 15.625 -39.308594 15.597656 -40.882812 C 15.574219 -42.210938 15.402344 -43.257812 15.089844 -44.023438 C 14.855469 -44.566406 14.449219 -45.0625 13.871094 -45.519531 C 13.367188 -45.914062 12.675781 -46.113281 11.800781 -46.113281 C 10.390625 -46.113281 9.449219 -45.855469 8.972656 -45.34375 C 8.410156 -44.746094 8.097656 -44.1875 8.027344 -43.675781 C 7.8125 -42.046875 7.703125 -40.546875 7.703125 -39.175781 C 7.703125 -37.722656 7.6875 -36.238281 7.660156 -34.730469 C 7.632812 -33.15625 7.453125 -31.355469 7.132812 -29.332031 C 6.804688 -27.285156 6.148438 -24.835938 5.15625 -21.980469 C 3.289062 -16.492188 2.371094 -12.199219 2.398438 -9.097656 C 2.421875 -6.207031 2.914062 -4.21875 3.871094 -3.128906 C 4.769531 -2.105469 5.828125 -1.589844 7.046875 -1.589844 Z M 11.542969 -49.167969 C 9.675781 -49.167969 8.054688 -49.765625 6.679688 -50.960938 C 5.238281 -52.210938 4.519531 -53.730469 4.519531 -55.515625 C 4.519531 -57.355469 5.238281 -58.902344 6.679688 -60.152344 C 8.054688 -61.347656 9.675781 -61.945312 11.542969 -61.945312 C 13.46875 -61.945312 15.117188 -61.347656 16.492188 -60.152344 C 17.933594 -58.902344 18.652344 -57.355469 18.652344 -55.515625 C 18.652344 -53.730469 17.933594 -52.210938 16.492188 -50.960938 C 15.117188 -49.765625 13.46875 -49.167969 11.542969 -49.167969 Z M 11.542969 -52.351562 C 12.675781 -52.351562 13.628906 -52.6875 14.40625 -53.363281 C 15.113281 -53.980469 15.46875 -54.695312 15.46875 -55.515625 C 15.46875 -56.386719 15.113281 -57.132812 14.40625 -57.75 C 13.628906 -58.425781 12.675781 -58.761719 11.542969 -58.761719 C 10.46875 -58.761719 9.542969 -58.425781 8.769531 -57.75 C 8.058594 -57.132812 7.703125 -56.386719 7.703125 -55.515625 C 7.703125 -54.695312 8.058594 -53.980469 8.769531 -53.363281 C 9.542969 -52.6875 10.46875 -52.351562 11.542969 -52.351562 Z M 11.542969 -52.351562 "/></g></g></g><g fill="#e52687" fill-opacity="1"><g transform="translate(109.827589, 64.019505)"><g><path d="M 12.054688 1.589844 C 10.21875 1.589844 8.308594 1.21875 6.316406 0.472656 C 4.238281 -0.308594 2.515625 -1.527344 1.148438 -3.191406 C -0.308594 -4.960938 -0.9375 -7.21875 -0.738281 -9.960938 C -0.503906 -12.605469 -0.0664062 -15.25 0.574219 -17.902344 C 1.195312 -20.460938 1.839844 -23.347656 2.515625 -26.558594 C 3.179688 -29.707031 3.652344 -33.453125 3.929688 -37.789062 C 4.09375 -40.230469 4.136719 -42.667969 4.054688 -45.105469 C 3.96875 -47.625 3.953125 -49.9375 4.011719 -52.035156 C 4.074219 -54.320312 4.449219 -56.199219 5.136719 -57.671875 C 5.570312 -58.601562 6.191406 -59.3125 7 -59.796875 C 7.785156 -60.265625 8.703125 -60.5 9.761719 -60.5 C 12.128906 -60.5 14.433594 -59.882812 16.683594 -58.648438 C 18.816406 -57.476562 20.8125 -55.992188 22.667969 -54.195312 C 24.46875 -52.453125 26.085938 -50.691406 27.511719 -48.914062 C 28.917969 -47.160156 30.070312 -45.648438 30.96875 -44.378906 C 31.828125 -43.160156 32.359375 -42.421875 32.566406 -42.164062 L 31.320312 -41.167969 L 32.523438 -42.210938 C 32.828125 -41.863281 33.074219 -41.613281 33.261719 -41.464844 C 33.292969 -41.441406 33.316406 -41.421875 33.339844 -41.40625 L 33.335938 -41.40625 C 33.226562 -41.460938 33.09375 -41.488281 32.933594 -41.488281 C 32.566406 -41.488281 32.277344 -41.363281 32.066406 -41.109375 C 32.042969 -41.082031 32.027344 -41.0625 32.023438 -41.050781 C 32.039062 -41.082031 32.054688 -41.125 32.078125 -41.1875 C 32.210938 -41.582031 32.324219 -42.238281 32.410156 -43.144531 C 32.605469 -45.160156 32.703125 -48.914062 32.703125 -54.410156 C 32.703125 -56.332031 33.199219 -57.820312 34.195312 -58.878906 C 35.21875 -59.960938 36.664062 -60.5 38.539062 -60.5 C 39.117188 -60.5 39.820312 -60.402344 40.648438 -60.203125 C 41.648438 -59.964844 42.5625 -59.425781 43.398438 -58.59375 C 44.3125 -57.675781 44.808594 -56.304688 44.882812 -54.472656 L 43.289062 -54.410156 L 44.878906 -54.511719 C 45.273438 -48.320312 45.75 -43.066406 46.3125 -38.742188 C 46.875 -34.402344 47.425781 -30.617188 47.960938 -27.378906 C 48.5 -24.105469 48.941406 -21.070312 49.285156 -18.273438 C 49.632812 -15.417969 49.75 -12.390625 49.636719 -9.195312 C 49.570312 -6.277344 48.617188 -3.769531 46.78125 -1.667969 C 44.878906 0.503906 42.132812 1.589844 38.539062 1.589844 C 34.09375 1.589844 30.777344 0.332031 28.59375 -2.183594 C 26.4375 -4.664062 25.488281 -7.765625 25.746094 -11.484375 C 26.015625 -15.234375 25.761719 -18.8125 24.976562 -22.222656 C 24.179688 -25.679688 23.152344 -28.757812 21.898438 -31.457031 C 20.648438 -34.152344 19.4375 -36.257812 18.261719 -37.777344 C 17.703125 -38.503906 17.230469 -39.039062 16.851562 -39.375 C 16.714844 -39.496094 16.609375 -39.578125 16.53125 -39.621094 C 16.585938 -39.59375 16.675781 -39.578125 16.808594 -39.578125 L 16.808594 -41.167969 L 16.929688 -39.582031 C 16.914062 -39.582031 16.898438 -39.578125 16.890625 -39.578125 C 16.894531 -39.578125 16.898438 -39.578125 16.90625 -39.582031 C 16.941406 -39.597656 16.972656 -39.617188 17.003906 -39.648438 C 17.027344 -39.667969 17.039062 -39.683594 17.046875 -39.695312 C 17.03125 -39.667969 17.019531 -39.625 17.003906 -39.5625 C 16.878906 -38.972656 16.898438 -38.210938 17.058594 -37.285156 C 17.25 -36.195312 17.480469 -35.136719 17.753906 -34.105469 C 18.042969 -33 18.25 -32.148438 18.367188 -31.550781 L 16.808594 -31.238281 L 18.355469 -31.613281 C 18.84375 -29.59375 19.5 -27.558594 20.320312 -25.503906 C 21.167969 -23.386719 22.015625 -21.296875 22.863281 -19.238281 C 23.75 -17.082031 24.414062 -14.9375 24.859375 -12.800781 C 25.328125 -10.550781 25.34375 -8.355469 24.902344 -6.214844 L 23.34375 -6.535156 L 24.910156 -6.257812 C 24.703125 -5.078125 24.195312 -3.886719 23.394531 -2.683594 C 22.542969 -1.402344 21.195312 -0.363281 19.351562 0.441406 C 17.59375 1.207031 15.160156 1.589844 12.054688 1.589844 Z M 12.054688 -1.589844 C 14.71875 -1.589844 16.726562 -1.886719 18.082031 -2.476562 C 19.351562 -3.03125 20.238281 -3.6875 20.746094 -4.449219 C 21.300781 -5.28125 21.644531 -6.070312 21.777344 -6.8125 L 21.78125 -6.835938 L 21.785156 -6.855469 C 22.136719 -8.566406 22.121094 -10.332031 21.742188 -12.152344 C 21.339844 -14.09375 20.730469 -16.050781 19.917969 -18.027344 C 19.066406 -20.097656 18.21875 -22.195312 17.367188 -24.324219 C 16.488281 -26.515625 15.789062 -28.695312 15.261719 -30.859375 L 15.253906 -30.894531 L 15.246094 -30.925781 C 15.140625 -31.460938 14.949219 -32.25 14.671875 -33.292969 C 14.378906 -34.414062 14.128906 -35.558594 13.921875 -36.734375 C 13.691406 -38.070312 13.679688 -39.234375 13.890625 -40.230469 C 14.046875 -40.949219 14.359375 -41.53125 14.828125 -41.96875 C 15.324219 -42.4375 15.945312 -42.699219 16.683594 -42.753906 L 16.746094 -42.761719 L 16.808594 -42.761719 C 17.492188 -42.761719 18.214844 -42.425781 18.96875 -41.753906 C 19.496094 -41.285156 20.101562 -40.605469 20.785156 -39.722656 C 22.101562 -38.015625 23.433594 -35.707031 24.785156 -32.800781 C 26.136719 -29.898438 27.230469 -26.609375 28.078125 -22.9375 C 28.933594 -19.214844 29.214844 -15.324219 28.921875 -11.265625 C 28.722656 -8.421875 29.417969 -6.089844 30.996094 -4.269531 C 32.546875 -2.484375 35.058594 -1.589844 38.539062 -1.589844 C 41.167969 -1.589844 43.117188 -2.316406 44.386719 -3.765625 C 45.714844 -5.285156 46.40625 -7.132812 46.453125 -9.308594 C 46.5625 -12.339844 46.453125 -15.199219 46.125 -17.886719 C 45.789062 -20.636719 45.351562 -23.628906 44.820312 -26.859375 C 44.277344 -30.132812 43.722656 -33.957031 43.15625 -38.332031 C 42.585938 -42.722656 42.101562 -48.050781 41.703125 -54.308594 L 41.699219 -54.328125 L 41.699219 -54.347656 C 41.660156 -55.347656 41.476562 -56.011719 41.148438 -56.339844 C 40.734375 -56.75 40.324219 -57.007812 39.90625 -57.105469 C 39.320312 -57.246094 38.863281 -57.316406 38.539062 -57.316406 C 37.582031 -57.316406 36.90625 -57.109375 36.511719 -56.691406 C 36.09375 -56.25 35.886719 -55.488281 35.886719 -54.410156 C 35.886719 -48.8125 35.785156 -44.957031 35.582031 -42.839844 C 35.46875 -41.683594 35.304688 -40.789062 35.089844 -40.15625 C 34.664062 -38.921875 33.949219 -38.304688 32.933594 -38.304688 C 32.398438 -38.304688 31.847656 -38.523438 31.289062 -38.964844 C 30.941406 -39.238281 30.554688 -39.625 30.121094 -40.125 L 30.097656 -40.148438 L 30.078125 -40.175781 C 29.832031 -40.484375 29.261719 -41.273438 28.367188 -42.542969 C 27.507812 -43.761719 26.394531 -45.21875 25.03125 -46.921875 C 23.6875 -48.59375 22.160156 -50.257812 20.453125 -51.910156 C 18.800781 -53.507812 17.035156 -54.824219 15.148438 -55.859375 C 13.378906 -56.832031 11.582031 -57.316406 9.761719 -57.316406 C 9.292969 -57.316406 8.917969 -57.234375 8.640625 -57.066406 C 8.386719 -56.914062 8.179688 -56.667969 8.019531 -56.328125 C 7.519531 -55.253906 7.242188 -53.792969 7.195312 -51.949219 C 7.136719 -49.914062 7.152344 -47.667969 7.234375 -45.210938 C 7.324219 -42.667969 7.277344 -40.125 7.105469 -37.585938 C 6.816406 -33.097656 6.328125 -29.203125 5.632812 -25.902344 C 4.949219 -22.660156 4.296875 -19.746094 3.667969 -17.15625 C 3.066406 -14.65625 2.65625 -12.183594 2.4375 -9.730469 C 2.296875 -7.835938 2.6875 -6.328125 3.605469 -5.214844 C 4.613281 -3.988281 5.890625 -3.089844 7.433594 -2.507812 C 9.066406 -1.898438 10.605469 -1.589844 12.054688 -1.589844 Z M 12.054688 -1.589844 "/></g></g></g><g fill="#e52687" fill-opacity="1"><g transform="translate(158.718162, 64.019505)"><g><path d="M 2.75 -44.042969 C 1.3125 -44.683594 0.304688 -45.828125 -0.273438 -47.476562 C -0.78125 -48.9375 -0.917969 -50.5 -0.683594 -52.167969 C -0.449219 -53.847656 0.171875 -55.375 1.175781 -56.75 C 2.25 -58.214844 3.734375 -59.195312 5.628906 -59.6875 C 6.851562 -59.992188 8.03125 -60.191406 9.167969 -60.285156 C 10.257812 -60.371094 11.785156 -60.417969 13.75 -60.417969 L 19.4375 -60.417969 C 20.839844 -60.417969 22.203125 -60.429688 23.519531 -60.457031 C 24.863281 -60.488281 26.046875 -60.5 27.078125 -60.5 L 31.40625 -60.5 C 33.765625 -60.5 35.753906 -60.441406 37.378906 -60.328125 C 39.117188 -60.203125 40.65625 -59.886719 41.988281 -59.378906 C 43.851562 -58.660156 45.214844 -57.421875 46.078125 -55.664062 C 46.878906 -54.027344 47.230469 -52.332031 47.128906 -50.585938 C 47.027344 -48.796875 46.484375 -47.242188 45.507812 -45.910156 C 44.394531 -44.40625 42.863281 -43.652344 40.914062 -43.652344 C 39.171875 -43.652344 37.574219 -43.871094 36.121094 -44.316406 C 34.972656 -44.664062 33.964844 -44.839844 33.105469 -44.839844 C 32.453125 -44.839844 31.890625 -44.519531 31.414062 -43.875 C 30.796875 -43.035156 30.332031 -41.058594 30.019531 -37.953125 C 29.757812 -35.535156 29.914062 -33.199219 30.488281 -30.953125 C 31.085938 -28.609375 31.890625 -26.320312 32.898438 -24.082031 L 36.042969 -17.121094 C 37.132812 -14.699219 37.949219 -12.242188 38.480469 -9.753906 C 38.683594 -8.878906 38.738281 -7.820312 38.636719 -6.582031 C 38.53125 -5.242188 38.082031 -3.949219 37.289062 -2.707031 C 36.480469 -1.4375 35.246094 -0.398438 33.59375 0.410156 C 31.984375 1.199219 29.8125 1.589844 27.078125 1.589844 L 19.4375 1.589844 C 16.671875 1.589844 14.488281 0.914062 12.890625 -0.441406 C 11.308594 -1.78125 10.3125 -3.46875 9.898438 -5.496094 C 9.511719 -7.410156 9.574219 -9.335938 10.089844 -11.273438 C 11.109375 -14.898438 12.054688 -18.441406 12.929688 -21.90625 C 13.800781 -25.359375 14.5 -28.445312 15.03125 -31.160156 C 15.546875 -33.78125 15.777344 -35.679688 15.726562 -36.855469 L 15.726562 -36.902344 C 15.671875 -40.507812 15.261719 -42.804688 14.488281 -43.800781 C 13.816406 -44.664062 13.089844 -45.09375 12.308594 -45.09375 C 11.253906 -45.09375 10.164062 -44.886719 9.039062 -44.472656 C 7.5625 -43.925781 6.160156 -43.652344 4.839844 -43.652344 C 4.136719 -43.652344 3.46875 -43.769531 2.835938 -44.007812 L 2.792969 -44.023438 Z M 4.042969 -46.953125 L 3.394531 -45.496094 L 3.953125 -46.988281 C 4.226562 -46.886719 4.523438 -46.835938 4.839844 -46.835938 C 5.78125 -46.835938 6.8125 -47.042969 7.9375 -47.457031 C 9.417969 -48.003906 10.875 -48.277344 12.308594 -48.277344 C 14.128906 -48.277344 15.695312 -47.4375 17.003906 -45.753906 C 18.210938 -44.199219 18.847656 -41.265625 18.90625 -36.945312 L 17.316406 -36.925781 L 18.90625 -36.992188 C 18.96875 -35.566406 18.71875 -33.417969 18.15625 -30.550781 C 17.613281 -27.777344 16.898438 -24.636719 16.015625 -21.128906 C 15.136719 -17.636719 14.1875 -14.078125 13.167969 -10.453125 C 12.777344 -9 12.730469 -7.558594 13.019531 -6.132812 C 13.285156 -4.824219 13.929688 -3.734375 14.949219 -2.871094 C 15.953125 -2.019531 17.449219 -1.589844 19.4375 -1.589844 L 27.078125 -1.589844 C 29.320312 -1.589844 31.027344 -1.878906 32.191406 -2.449219 C 33.3125 -2.996094 34.117188 -3.652344 34.605469 -4.421875 C 35.113281 -5.21875 35.402344 -6.019531 35.464844 -6.832031 C 35.535156 -7.742188 35.503906 -8.496094 35.367188 -9.089844 C 34.882812 -11.355469 34.140625 -13.597656 33.140625 -15.8125 L 30 -22.773438 C 28.914062 -25.175781 28.046875 -27.640625 27.402344 -30.164062 C 26.734375 -32.785156 26.550781 -35.484375 26.851562 -38.269531 C 27.222656 -41.957031 27.886719 -44.453125 28.851562 -45.761719 C 29.960938 -47.269531 31.378906 -48.023438 33.105469 -48.023438 C 34.28125 -48.023438 35.597656 -47.800781 37.046875 -47.359375 C 38.199219 -47.011719 39.488281 -46.835938 40.914062 -46.835938 C 41.792969 -46.835938 42.46875 -47.15625 42.941406 -47.800781 C 43.546875 -48.621094 43.882812 -49.609375 43.949219 -50.765625 C 44.019531 -51.960938 43.777344 -53.125 43.21875 -54.261719 C 42.722656 -55.273438 41.9375 -55.988281 40.855469 -56.402344 C 39.816406 -56.800781 38.578125 -57.050781 37.152344 -57.152344 C 35.605469 -57.261719 33.6875 -57.316406 31.40625 -57.316406 L 27.078125 -57.316406 C 26.070312 -57.316406 24.90625 -57.304688 23.589844 -57.277344 C 22.25 -57.246094 20.863281 -57.234375 19.4375 -57.234375 L 13.75 -57.234375 C 11.871094 -57.234375 10.425781 -57.191406 9.421875 -57.109375 C 8.464844 -57.03125 7.464844 -56.863281 6.425781 -56.605469 C 5.265625 -56.304688 4.371094 -55.726562 3.746094 -54.871094 C 3.054688 -53.925781 2.628906 -52.878906 2.46875 -51.726562 C 2.304688 -50.566406 2.394531 -49.5 2.734375 -48.527344 C 3.007812 -47.742188 3.441406 -47.21875 4.042969 -46.953125 Z M 4.042969 -46.953125 "/></g></g></g><g fill="#e52687" fill-opacity="1"><g transform="translate(205.147238, 64.019505)"><g><path d="M 7.894531 3.289062 C 5.175781 3.289062 3.054688 2.488281 1.523438 0.886719 C 0.0117188 -0.695312 -0.742188 -2.488281 -0.742188 -4.5 C -0.742188 -6.503906 -0.078125 -8.359375 1.25 -10.0625 C 2.671875 -11.886719 4.886719 -12.796875 7.894531 -12.796875 C 10.476562 -12.796875 12.433594 -11.867188 13.769531 -10.011719 C 15 -8.304688 15.582031 -6.449219 15.511719 -4.445312 C 15.441406 -2.414062 14.710938 -0.632812 13.316406 0.902344 C 11.867188 2.492188 10.0625 3.289062 7.894531 3.289062 Z M 7.894531 0.105469 C 9.121094 0.105469 10.144531 -0.34375 10.960938 -1.242188 C 11.832031 -2.199219 12.285156 -3.300781 12.332031 -4.554688 C 12.375 -5.832031 11.992188 -7.03125 11.1875 -8.152344 C 10.484375 -9.125 9.386719 -9.613281 7.894531 -9.613281 C 5.921875 -9.613281 4.542969 -9.109375 3.757812 -8.105469 C 2.878906 -6.976562 2.441406 -5.773438 2.441406 -4.5 C 2.441406 -3.339844 2.902344 -2.277344 3.824219 -1.3125 C 4.726562 -0.367188 6.085938 0.105469 7.894531 0.105469 Z M 7.894531 0.105469 "/></g></g></g></g></g><g fill="#e52687" fill-opacity="1"><g transform="translate(137.849555, 235.749534)"><g><path d="M 2.859375 0.0625 C 2.390625 0.0625 1.972656 -0.0078125 1.609375 -0.15625 C 1.242188 -0.3125 0.945312 -0.535156 0.71875 -0.828125 C 0.5 -1.117188 0.382812 -1.472656 0.375 -1.890625 L 2.015625 -1.890625 C 2.046875 -1.660156 2.128906 -1.484375 2.265625 -1.359375 C 2.398438 -1.234375 2.582031 -1.171875 2.8125 -1.171875 C 3.039062 -1.171875 3.21875 -1.222656 3.34375 -1.328125 C 3.476562 -1.429688 3.546875 -1.578125 3.546875 -1.765625 C 3.546875 -1.921875 3.492188 -2.050781 3.390625 -2.15625 C 3.285156 -2.257812 3.15625 -2.34375 3 -2.40625 C 2.84375 -2.476562 2.625 -2.554688 2.34375 -2.640625 C 1.9375 -2.765625 1.601562 -2.890625 1.34375 -3.015625 C 1.082031 -3.140625 0.859375 -3.328125 0.671875 -3.578125 C 0.484375 -3.828125 0.390625 -4.148438 0.390625 -4.546875 C 0.390625 -5.128906 0.601562 -5.585938 1.03125 -5.921875 C 1.46875 -6.265625 2.023438 -6.4375 2.703125 -6.4375 C 3.398438 -6.4375 3.960938 -6.265625 4.390625 -5.921875 C 4.828125 -5.585938 5.054688 -5.125 5.078125 -4.53125 L 3.40625 -4.53125 C 3.394531 -4.738281 3.320312 -4.898438 3.1875 -5.015625 C 3.050781 -5.128906 2.875 -5.1875 2.65625 -5.1875 C 2.46875 -5.1875 2.316406 -5.132812 2.203125 -5.03125 C 2.085938 -4.9375 2.03125 -4.796875 2.03125 -4.609375 C 2.03125 -4.410156 2.125 -4.253906 2.3125 -4.140625 C 2.507812 -4.023438 2.8125 -3.898438 3.21875 -3.765625 C 3.632812 -3.628906 3.96875 -3.492188 4.21875 -3.359375 C 4.476562 -3.234375 4.703125 -3.050781 4.890625 -2.8125 C 5.078125 -2.570312 5.171875 -2.265625 5.171875 -1.890625 C 5.171875 -1.523438 5.078125 -1.191406 4.890625 -0.890625 C 4.703125 -0.597656 4.429688 -0.363281 4.078125 -0.1875 C 3.734375 -0.0195312 3.328125 0.0625 2.859375 0.0625 Z M 2.859375 0.0625 "/></g></g></g><g fill="#e52687" fill-opacity="1"><g transform="translate(146.588732, 235.749534)"><g><path d="M 2.078125 -6.34375 L 2.078125 -2.546875 C 2.078125 -2.171875 2.171875 -1.878906 2.359375 -1.671875 C 2.546875 -1.460938 2.816406 -1.359375 3.171875 -1.359375 C 3.535156 -1.359375 3.8125 -1.460938 4 -1.671875 C 4.195312 -1.878906 4.296875 -2.171875 4.296875 -2.546875 L 4.296875 -6.34375 L 5.84375 -6.34375 L 5.84375 -2.5625 C 5.84375 -1.988281 5.722656 -1.503906 5.484375 -1.109375 C 5.242188 -0.722656 4.921875 -0.429688 4.515625 -0.234375 C 4.109375 -0.0351562 3.65625 0.0625 3.15625 0.0625 C 2.65625 0.0625 2.207031 -0.0351562 1.8125 -0.234375 C 1.414062 -0.429688 1.101562 -0.722656 0.875 -1.109375 C 0.644531 -1.503906 0.53125 -1.988281 0.53125 -2.5625 L 0.53125 -6.34375 Z M 2.078125 -6.34375 "/></g></g></g><g fill="#e52687" fill-opacity="1"><g transform="translate(156.140016, 235.749534)"><g><path d="M 5.390625 -4.296875 C 5.390625 -3.929688 5.304688 -3.59375 5.140625 -3.28125 C 4.972656 -2.976562 4.710938 -2.734375 4.359375 -2.546875 C 4.015625 -2.367188 3.582031 -2.28125 3.0625 -2.28125 L 2.109375 -2.28125 L 2.109375 0 L 0.5625 0 L 0.5625 -6.34375 L 3.0625 -6.34375 C 3.5625 -6.34375 3.988281 -6.253906 4.34375 -6.078125 C 4.695312 -5.898438 4.957031 -5.65625 5.125 -5.34375 C 5.300781 -5.039062 5.390625 -4.691406 5.390625 -4.296875 Z M 2.9375 -3.5 C 3.238281 -3.5 3.457031 -3.566406 3.59375 -3.703125 C 3.738281 -3.847656 3.8125 -4.046875 3.8125 -4.296875 C 3.8125 -4.546875 3.738281 -4.738281 3.59375 -4.875 C 3.457031 -5.019531 3.238281 -5.09375 2.9375 -5.09375 L 2.109375 -5.09375 L 2.109375 -3.5 Z M 2.9375 -3.5 "/></g></g></g><g fill="#e52687" fill-opacity="1"><g transform="translate(164.960401, 235.749534)"><g><path d="M 5.390625 -4.296875 C 5.390625 -3.929688 5.304688 -3.59375 5.140625 -3.28125 C 4.972656 -2.976562 4.710938 -2.734375 4.359375 -2.546875 C 4.015625 -2.367188 3.582031 -2.28125 3.0625 -2.28125 L 2.109375 -2.28125 L 2.109375 0 L 0.5625 0 L 0.5625 -6.34375 L 3.0625 -6.34375 C 3.5625 -6.34375 3.988281 -6.253906 4.34375 -6.078125 C 4.695312 -5.898438 4.957031 -5.65625 5.125 -5.34375 C 5.300781 -5.039062 5.390625 -4.691406 5.390625 -4.296875 Z M 2.9375 -3.5 C 3.238281 -3.5 3.457031 -3.566406 3.59375 -3.703125 C 3.738281 -3.847656 3.8125 -4.046875 3.8125 -4.296875 C 3.8125 -4.546875 3.738281 -4.738281 3.59375 -4.875 C 3.457031 -5.019531 3.238281 -5.09375 2.9375 -5.09375 L 2.109375 -5.09375 L 2.109375 -3.5 Z M 2.9375 -3.5 "/></g></g></g><g fill="#e52687" fill-opacity="1"><g transform="translate(173.780785, 235.749534)"><g><path d="M 2.109375 -1.1875 L 4.125 -1.1875 L 4.125 0 L 0.5625 0 L 0.5625 -6.34375 L 2.109375 -6.34375 Z M 2.109375 -1.1875 "/></g></g></g><g fill="#e52687" fill-opacity="1"><g transform="translate(181.274719, 235.749534)"><g><path d="M 6 -6.34375 L 3.796875 -2.09375 L 3.796875 0 L 2.265625 0 L 2.265625 -2.09375 L 0.0625 -6.34375 L 1.8125 -6.34375 L 3.046875 -3.6875 L 4.265625 -6.34375 Z M 6 -6.34375 "/></g></g></g><g fill="#e52687" fill-opacity="1"><g transform="translate(190.51921, 235.749534)"><g/></g></g><g fill="#e52687" fill-opacity="1"><g transform="translate(195.621925, 235.749534)"><g><path d="M 2.859375 0.0625 C 2.390625 0.0625 1.972656 -0.0078125 1.609375 -0.15625 C 1.242188 -0.3125 0.945312 -0.535156 0.71875 -0.828125 C 0.5 -1.117188 0.382812 -1.472656 0.375 -1.890625 L 2.015625 -1.890625 C 2.046875 -1.660156 2.128906 -1.484375 2.265625 -1.359375 C 2.398438 -1.234375 2.582031 -1.171875 2.8125 -1.171875 C 3.039062 -1.171875 3.21875 -1.222656 3.34375 -1.328125 C 3.476562 -1.429688 3.546875 -1.578125 3.546875 -1.765625 C 3.546875 -1.921875 3.492188 -2.050781 3.390625 -2.15625 C 3.285156 -2.257812 3.15625 -2.34375 3 -2.40625 C 2.84375 -2.476562 2.625 -2.554688 2.34375 -2.640625 C 1.9375 -2.765625 1.601562 -2.890625 1.34375 -3.015625 C 1.082031 -3.140625 0.859375 -3.328125 0.671875 -3.578125 C 0.484375 -3.828125 0.390625 -4.148438 0.390625 -4.546875 C 0.390625 -5.128906 0.601562 -5.585938 1.03125 -5.921875 C 1.46875 -6.265625 2.023438 -6.4375 2.703125 -6.4375 C 3.398438 -6.4375 3.960938 -6.265625 4.390625 -5.921875 C 4.828125 -5.585938 5.054688 -5.125 5.078125 -4.53125 L 3.40625 -4.53125 C 3.394531 -4.738281 3.320312 -4.898438 3.1875 -5.015625 C 3.050781 -5.128906 2.875 -5.1875 2.65625 -5.1875 C 2.46875 -5.1875 2.316406 -5.132812 2.203125 -5.03125 C 2.085938 -4.9375 2.03125 -4.796875 2.03125 -4.609375 C 2.03125 -4.410156 2.125 -4.253906 2.3125 -4.140625 C 2.507812 -4.023438 2.8125 -3.898438 3.21875 -3.765625 C 3.632812 -3.628906 3.96875 -3.492188 4.21875 -3.359375 C 4.476562 -3.234375 4.703125 -3.050781 4.890625 -2.8125 C 5.078125 -2.570312 5.171875 -2.265625 5.171875 -1.890625 C 5.171875 -1.523438 5.078125 -1.191406 4.890625 -0.890625 C 4.703125 -0.597656 4.429688 -0.363281 4.078125 -0.1875 C 3.734375 -0.0195312 3.328125 0.0625 2.859375 0.0625 Z M 2.859375 0.0625 "/></g></g></g><g fill="#e52687" fill-opacity="1"><g transform="translate(204.361102, 235.749534)"><g><path d="M 5.125 -6.34375 L 5.125 -5.109375 L 3.4375 -5.109375 L 3.4375 0 L 1.890625 0 L 1.890625 -5.109375 L 0.21875 -5.109375 L 0.21875 -6.34375 Z M 5.125 -6.34375 "/></g></g></g><g fill="#e52687" fill-opacity="1"><g transform="translate(212.883711, 235.749534)"><g><path d="M 3.5625 0.0625 C 2.96875 0.0625 2.421875 -0.0703125 1.921875 -0.34375 C 1.421875 -0.625 1.023438 -1.015625 0.734375 -1.515625 C 0.441406 -2.015625 0.296875 -2.570312 0.296875 -3.1875 C 0.296875 -3.8125 0.441406 -4.367188 0.734375 -4.859375 C 1.023438 -5.347656 1.421875 -5.734375 1.921875 -6.015625 C 2.421875 -6.296875 2.96875 -6.4375 3.5625 -6.4375 C 4.15625 -6.4375 4.695312 -6.296875 5.1875 -6.015625 C 5.6875 -5.734375 6.078125 -5.347656 6.359375 -4.859375 C 6.648438 -4.367188 6.796875 -3.8125 6.796875 -3.1875 C 6.796875 -2.570312 6.648438 -2.015625 6.359375 -1.515625 C 6.078125 -1.015625 5.6875 -0.625 5.1875 -0.34375 C 4.695312 -0.0703125 4.15625 0.0625 3.5625 0.0625 Z M 3.5625 -1.34375 C 4.0625 -1.34375 4.460938 -1.507812 4.765625 -1.84375 C 5.078125 -2.1875 5.234375 -2.632812 5.234375 -3.1875 C 5.234375 -3.75 5.078125 -4.195312 4.765625 -4.53125 C 4.460938 -4.863281 4.0625 -5.03125 3.5625 -5.03125 C 3.050781 -5.03125 2.640625 -4.863281 2.328125 -4.53125 C 2.023438 -4.195312 1.875 -3.75 1.875 -3.1875 C 1.875 -2.625 2.023438 -2.175781 2.328125 -1.84375 C 2.640625 -1.507812 3.050781 -1.34375 3.5625 -1.34375 Z M 3.5625 -1.34375 "/></g></g></g><g fill="#e52687" fill-opacity="1"><g transform="translate(223.165906, 235.749534)"><g><path d="M 3.796875 0 L 2.46875 -2.390625 L 2.109375 -2.390625 L 2.109375 0 L 0.5625 0 L 0.5625 -6.34375 L 3.15625 -6.34375 C 3.65625 -6.34375 4.078125 -6.253906 4.421875 -6.078125 C 4.773438 -5.898438 5.039062 -5.660156 5.21875 -5.359375 C 5.394531 -5.054688 5.484375 -4.71875 5.484375 -4.34375 C 5.484375 -3.925781 5.363281 -3.550781 5.125 -3.21875 C 4.882812 -2.882812 4.535156 -2.648438 4.078125 -2.515625 L 5.53125 0 Z M 2.109375 -3.484375 L 3.0625 -3.484375 C 3.34375 -3.484375 3.550781 -3.550781 3.6875 -3.6875 C 3.832031 -3.832031 3.90625 -4.03125 3.90625 -4.28125 C 3.90625 -4.519531 3.832031 -4.707031 3.6875 -4.84375 C 3.550781 -4.988281 3.34375 -5.0625 3.0625 -5.0625 L 2.109375 -5.0625 Z M 2.109375 -3.484375 "/></g></g></g><g fill="#e52687" fill-opacity="1"><g transform="translate(232.238953, 235.749534)"><g><path d="M 2.109375 -5.109375 L 2.109375 -3.8125 L 4.171875 -3.8125 L 4.171875 -2.625 L 2.109375 -2.625 L 2.109375 -1.234375 L 4.4375 -1.234375 L 4.4375 0 L 0.5625 0 L 0.5625 -6.34375 L 4.4375 -6.34375 L 4.4375 -5.109375 Z M 2.109375 -5.109375 "/></g></g></g><g fill="#e52687" fill-opacity="1"><g transform="translate(171.681584, 247.749533)"><g><path d="M 0.359375 -1.234375 C 0.554688 -1.398438 0.644531 -1.476562 0.625 -1.46875 C 1.21875 -1.945312 1.679688 -2.34375 2.015625 -2.65625 C 2.359375 -2.976562 2.648438 -3.304688 2.890625 -3.640625 C 3.128906 -3.984375 3.25 -4.320312 3.25 -4.65625 C 3.25 -4.894531 3.191406 -5.082031 3.078125 -5.21875 C 2.960938 -5.363281 2.789062 -5.4375 2.5625 -5.4375 C 2.332031 -5.4375 2.148438 -5.347656 2.015625 -5.171875 C 1.890625 -5.003906 1.828125 -4.765625 1.828125 -4.453125 L 0.328125 -4.453125 C 0.347656 -4.960938 0.457031 -5.390625 0.65625 -5.734375 C 0.863281 -6.078125 1.140625 -6.328125 1.484375 -6.484375 C 1.828125 -6.648438 2.207031 -6.734375 2.625 -6.734375 C 3.332031 -6.734375 3.867188 -6.550781 4.234375 -6.1875 C 4.597656 -5.820312 4.78125 -5.34375 4.78125 -4.75 C 4.78125 -4.101562 4.5625 -3.503906 4.125 -2.953125 C 3.6875 -2.398438 3.128906 -1.863281 2.453125 -1.34375 L 4.890625 -1.34375 L 4.890625 -0.09375 L 0.359375 -0.09375 Z M 0.359375 -1.234375 "/></g></g></g><g fill="#e52687" fill-opacity="1"><g transform="translate(180.023732, 247.749533)"><g><path d="M 0.40625 -3.390625 C 0.40625 -4.421875 0.601562 -5.234375 1 -5.828125 C 1.40625 -6.429688 2.050781 -6.734375 2.9375 -6.734375 C 3.832031 -6.734375 4.476562 -6.429688 4.875 -5.828125 C 5.28125 -5.234375 5.484375 -4.421875 5.484375 -3.390625 C 5.484375 -2.335938 5.28125 -1.515625 4.875 -0.921875 C 4.476562 -0.328125 3.832031 -0.03125 2.9375 -0.03125 C 2.050781 -0.03125 1.40625 -0.328125 1 -0.921875 C 0.601562 -1.515625 0.40625 -2.335938 0.40625 -3.390625 Z M 3.96875 -3.390625 C 3.96875 -3.992188 3.898438 -4.457031 3.765625 -4.78125 C 3.628906 -5.113281 3.351562 -5.28125 2.9375 -5.28125 C 2.53125 -5.28125 2.257812 -5.113281 2.125 -4.78125 C 1.988281 -4.457031 1.921875 -3.992188 1.921875 -3.390625 C 1.921875 -2.972656 1.941406 -2.628906 1.984375 -2.359375 C 2.035156 -2.097656 2.132812 -1.882812 2.28125 -1.71875 C 2.4375 -1.550781 2.65625 -1.46875 2.9375 -1.46875 C 3.226562 -1.46875 3.445312 -1.550781 3.59375 -1.71875 C 3.738281 -1.882812 3.835938 -2.097656 3.890625 -2.359375 C 3.941406 -2.628906 3.96875 -2.972656 3.96875 -3.390625 Z M 3.96875 -3.390625 "/></g></g></g><g fill="#e52687" fill-opacity="1"><g transform="translate(189.096779, 247.749533)"><g><path d="M 0.359375 -1.234375 C 0.554688 -1.398438 0.644531 -1.476562 0.625 -1.46875 C 1.21875 -1.945312 1.679688 -2.34375 2.015625 -2.65625 C 2.359375 -2.976562 2.648438 -3.304688 2.890625 -3.640625 C 3.128906 -3.984375 3.25 -4.320312 3.25 -4.65625 C 3.25 -4.894531 3.191406 -5.082031 3.078125 -5.21875 C 2.960938 -5.363281 2.789062 -5.4375 2.5625 -5.4375 C 2.332031 -5.4375 2.148438 -5.347656 2.015625 -5.171875 C 1.890625 -5.003906 1.828125 -4.765625 1.828125 -4.453125 L 0.328125 -4.453125 C 0.347656 -4.960938 0.457031 -5.390625 0.65625 -5.734375 C 0.863281 -6.078125 1.140625 -6.328125 1.484375 -6.484375 C 1.828125 -6.648438 2.207031 -6.734375 2.625 -6.734375 C 3.332031 -6.734375 3.867188 -6.550781 4.234375 -6.1875 C 4.597656 -5.820312 4.78125 -5.34375 4.78125 -4.75 C 4.78125 -4.101562 4.5625 -3.503906 4.125 -2.953125 C 3.6875 -2.398438 3.128906 -1.863281 2.453125 -1.34375 L 4.890625 -1.34375 L 4.890625 -0.09375 L 0.359375 -0.09375 Z M 0.359375 -1.234375 "/></g></g></g><g fill="#e52687" fill-opacity="1"><g transform="translate(197.438926, 247.749533)"><g><path d="M 5.046875 -5.25 L 2.234375 -5.25 L 2.234375 -4 C 2.347656 -4.132812 2.515625 -4.242188 2.734375 -4.328125 C 2.953125 -4.410156 3.1875 -4.453125 3.4375 -4.453125 C 3.894531 -4.453125 4.269531 -4.347656 4.5625 -4.140625 C 4.863281 -3.941406 5.082031 -3.675781 5.21875 -3.34375 C 5.351562 -3.019531 5.421875 -2.671875 5.421875 -2.296875 C 5.421875 -1.585938 5.222656 -1.023438 4.828125 -0.609375 C 4.429688 -0.203125 3.875 0 3.15625 0 C 2.664062 0 2.242188 -0.0820312 1.890625 -0.25 C 1.535156 -0.414062 1.257812 -0.644531 1.0625 -0.9375 C 0.875 -1.226562 0.773438 -1.566406 0.765625 -1.953125 L 2.265625 -1.953125 C 2.304688 -1.773438 2.394531 -1.625 2.53125 -1.5 C 2.664062 -1.375 2.851562 -1.3125 3.09375 -1.3125 C 3.375 -1.3125 3.582031 -1.398438 3.71875 -1.578125 C 3.863281 -1.753906 3.9375 -1.992188 3.9375 -2.296875 C 3.9375 -2.597656 3.863281 -2.828125 3.71875 -2.984375 C 3.570312 -3.140625 3.363281 -3.21875 3.09375 -3.21875 C 2.882812 -3.21875 2.710938 -3.164062 2.578125 -3.0625 C 2.453125 -2.96875 2.367188 -2.835938 2.328125 -2.671875 L 0.828125 -2.671875 L 0.828125 -6.609375 L 5.046875 -6.609375 Z M 5.046875 -5.25 "/></g></g></g></svg>